<svg width="227" height="85" viewBox="0 0 227 85" fill="none" xmlns="http://www.w3.org/2000/svg">
<g clip-path="url(#clip0_175_1069)">
<path d="M80.3311 46.2234C80.3311 43.9731 82.0603 42.5244 84.0838 42.5244C85.0847 42.5244 86.2866 42.8875 87.0257 44.1457L85.874 44.9473C85.4578 44.3398 84.8515 44.045 84.1053 44.045C82.9214 44.045 81.9814 44.8538 81.9814 46.2234C81.9814 47.593 82.8927 48.4522 84.1053 48.4522C84.8551 48.4522 85.5511 48.1287 85.7843 47.194H84.1878V45.8676H87.3306C87.7037 48.4198 86.0462 49.9189 84.0443 49.9189C82.0424 49.9189 80.3346 48.4702 80.3346 46.2198L80.3311 46.2234Z" fill="#214586"/>
<path d="M87.9658 47.1939C87.9658 45.4109 89.2897 44.4475 90.6458 44.4475C92.002 44.4475 93.5482 45.3786 93.2146 47.7906H89.4726C89.6843 48.3586 90.2117 48.6426 90.9077 48.6426C91.3741 48.6426 91.7867 48.5312 92.1706 48.2364L92.8773 48.9769C92.4432 49.5233 91.6934 49.9188 90.7355 49.9188C89.2789 49.9188 87.9658 48.9266 87.9658 47.1939V47.1939ZM91.8369 46.6691C91.7257 46.0616 91.1911 45.7668 90.6638 45.7668C90.1364 45.7668 89.6126 46.04 89.4404 46.6691H91.8369Z" fill="#214586"/>
<path d="M93.9639 44.5518H95.5317V45.2205C95.8259 44.7747 96.3389 44.4512 97.0887 44.4512C98.1507 44.4512 99.0512 45.109 99.0512 46.7195V49.8182H97.4834V46.9927C97.4834 46.3348 97.1497 45.8495 96.5039 45.8495C95.8582 45.8495 95.5317 46.3348 95.5317 46.9927V49.8182H93.9639V44.5482V44.5518Z" fill="#214586"/>
<path d="M100.375 48.1969V45.7956H99.5967V44.5482H100.375V43.2002H101.943V44.5482H103.044V45.7956H101.943V47.9417C101.943 48.2041 102.094 48.4881 102.571 48.4881C102.693 48.4881 102.876 48.4665 103.066 48.409V49.6061C102.865 49.8074 102.42 49.8793 102.054 49.8793C101.082 49.8793 100.375 49.4048 100.375 48.1969Z" fill="#214586"/>
<path d="M103.489 47.1939C103.489 45.4109 104.813 44.4475 106.169 44.4475C107.525 44.4475 109.072 45.3786 108.738 47.7906H104.996C105.208 48.3586 105.735 48.6426 106.431 48.6426C106.898 48.6426 107.31 48.5312 107.694 48.2364L108.401 48.9769C107.967 49.5233 107.217 49.9188 106.259 49.9188C104.802 49.9188 103.489 48.9266 103.489 47.1939V47.1939ZM107.36 46.6691C107.249 46.0616 106.715 45.7668 106.187 45.7668C105.66 45.7668 105.136 46.04 104.964 46.6691H107.36Z" fill="#214586"/>
<path d="M115.372 49.8181V49.2214H115.343C115.261 49.4155 114.715 49.9224 113.786 49.9224C112.591 49.9224 111.278 49.0201 111.278 47.1868C111.278 45.3534 112.591 44.4511 113.786 44.4511C114.715 44.4511 115.264 44.958 115.343 45.1485H115.372V42.625H116.94V49.8181H115.372V49.8181ZM114.109 48.5204C114.798 48.5204 115.415 48.0459 115.415 47.1832C115.415 46.3204 114.798 45.8459 114.109 45.8459C113.42 45.8459 112.825 46.3312 112.825 47.1832C112.825 48.0351 113.442 48.5204 114.109 48.5204Z" fill="#214586"/>
<path d="M117.636 47.1939C117.636 45.4109 118.96 44.4475 120.316 44.4475C121.672 44.4475 123.218 45.3786 122.885 47.7906H119.143C119.354 48.3586 119.882 48.6426 120.578 48.6426C121.044 48.6426 121.457 48.5312 121.84 48.2364L122.547 48.9769C122.113 49.5233 121.363 49.9188 120.405 49.9188C118.949 49.9188 117.636 48.9266 117.636 47.1939V47.1939ZM121.507 46.6691C121.396 46.0616 120.861 45.7668 120.334 45.7668C119.806 45.7668 119.282 46.04 119.11 46.6691H121.507Z" fill="#214586"/>
<path d="M126.203 48.1969V45.7956H125.425V44.5482H126.203V43.2002H127.771V44.5482H128.873V45.7956H127.771V47.9417C127.771 48.2041 127.922 48.4881 128.399 48.4881C128.521 48.4881 128.704 48.4665 128.894 48.409V49.6061C128.693 49.8074 128.248 49.8793 127.882 49.8793C126.91 49.8793 126.203 49.4048 126.203 48.1969Z" fill="#214586"/>
<path d="M129.618 44.5518H131.186V45.9789C131.358 45.127 131.864 44.4512 132.815 44.4512C132.937 44.4512 133.059 44.462 133.188 44.5015V45.9897C133.066 45.9682 132.955 45.961 132.826 45.961C131.785 45.961 131.186 46.6584 131.186 47.6541V49.8218H129.618V44.5518V44.5518Z" fill="#214586"/>
<path d="M133.482 47.1868C133.482 45.3535 134.796 44.4512 135.99 44.4512C136.919 44.4512 137.468 44.958 137.547 45.1486H137.576V44.5518H139.144V49.8218H137.576V49.225H137.547C137.465 49.4191 136.919 49.926 135.99 49.926C134.796 49.926 133.482 49.0237 133.482 47.1904V47.1868ZM136.313 48.524C137.002 48.524 137.619 48.0495 137.619 47.1868C137.619 46.324 137.002 45.8495 136.313 45.8495C135.624 45.8495 135.029 46.3348 135.029 47.1868C135.029 48.0388 135.646 48.524 136.313 48.524Z" fill="#214586"/>
<path d="M141.663 42.625V45.1485H141.691C141.774 44.9544 142.319 44.4511 143.248 44.4511C144.443 44.4511 145.756 45.3534 145.756 47.1868C145.756 49.0201 144.443 49.9224 143.248 49.9224C142.319 49.9224 141.77 49.4155 141.691 49.2214H141.663V49.8181H140.095V42.625H141.663V42.625ZM142.925 48.5204C143.593 48.5204 144.21 48.0351 144.21 47.1832C144.21 46.3312 143.593 45.8459 142.925 45.8459C142.258 45.8459 141.619 46.324 141.619 47.1832C141.619 48.0423 142.237 48.5204 142.925 48.5204Z" fill="#214586"/>
<path d="M146.204 47.1868C146.204 45.3535 147.517 44.4512 148.712 44.4512C149.641 44.4512 150.186 44.958 150.269 45.1486H150.298V44.5518H151.865V49.8218H150.298V49.225H150.269C150.186 49.4191 149.641 49.926 148.712 49.926C147.517 49.926 146.204 49.0237 146.204 47.1904V47.1868ZM149.035 48.524C149.724 48.524 150.337 48.0495 150.337 47.1868C150.337 46.324 149.72 45.8495 149.035 45.8495C148.35 45.8495 147.75 46.3348 147.75 47.1868C147.75 48.0388 148.367 48.524 149.035 48.524Z" fill="#214586"/>
<path d="M151.431 50.325H151.754C152.472 50.325 152.845 50.1417 152.845 49.2214V44.5518H154.413V49.3832C154.413 51.0547 153.645 51.7737 151.833 51.7737H151.428V50.325H151.431ZM152.848 42.625H154.416V43.991H152.848V42.625Z" fill="#214586"/>
<path d="M155.112 47.1868C155.112 45.393 156.529 44.4512 157.904 44.4512C159.278 44.4512 160.695 45.393 160.695 47.1868C160.695 48.9806 159.278 49.9224 157.904 49.9224C156.529 49.9224 155.112 48.9806 155.112 47.1868ZM157.904 48.5025C158.582 48.5025 159.148 47.9956 159.148 47.1868C159.148 46.378 158.582 45.8711 157.904 45.8711C157.225 45.8711 156.659 46.378 156.659 47.1868C156.659 47.9956 157.225 48.5025 157.904 48.5025Z" fill="#214586"/>
<path d="M165.266 49.7606L163.081 44.5518H164.678L166.012 47.9776L167.347 44.5518H168.943L166.74 49.8217L165.933 51.7449H164.398L165.266 49.7606V49.7606Z" fill="#214586"/>
<path d="M171.282 48.4198L172.527 48.0855C172.609 48.3407 172.789 48.693 173.284 48.693C173.567 48.693 173.829 48.5528 173.829 48.258C173.829 48.0855 173.729 47.9237 173.384 47.8123L172.678 47.5499C171.809 47.2371 171.433 46.6691 171.433 46.0113C171.433 45.0299 172.312 44.4512 173.345 44.4512C174.378 44.4512 175.053 45.0084 175.236 45.8603L174.012 46.1659C173.879 45.7597 173.617 45.6698 173.406 45.6698C173.101 45.6698 172.95 45.8531 172.95 46.0329C172.95 46.2054 173.051 46.3672 173.406 46.4786L174.062 46.7231C174.629 46.9172 175.375 47.309 175.375 48.2616C175.375 49.3257 174.475 49.9224 173.302 49.9224C172.24 49.9224 171.44 49.4263 171.278 48.4234L171.282 48.4198Z" fill="#214586"/>
<path d="M175.824 47.1868C175.824 45.393 177.241 44.4512 178.615 44.4512C179.99 44.4512 181.407 45.393 181.407 47.1868C181.407 48.9806 179.99 49.9224 178.615 49.9224C177.241 49.9224 175.824 48.9806 175.824 47.1868ZM178.615 48.5025C179.293 48.5025 179.86 47.9956 179.86 47.1868C179.86 46.378 179.293 45.8711 178.615 45.8711C177.937 45.8711 177.371 46.378 177.371 47.1868C177.371 47.9956 177.937 48.5025 178.615 48.5025Z" fill="#214586"/>
<path d="M182.103 42.625H183.67V49.8181H182.103V42.625Z" fill="#214586"/>
<path d="M189.708 49.8181H188.141V49.1495C187.846 49.5952 187.333 49.9188 186.584 49.9188C185.522 49.9188 184.621 49.2609 184.621 47.6505V44.5518H186.189V47.3772C186.189 48.0351 186.523 48.5204 187.168 48.5204C187.814 48.5204 188.141 48.0351 188.141 47.3772V44.5518H189.708V49.8217V49.8181Z" fill="#214586"/>
<path d="M190.404 47.176C190.404 45.393 191.8 44.4512 193.206 44.4512C194.135 44.4512 194.957 44.8754 195.47 45.7489L194.336 46.4894C194.085 46.1443 193.709 45.8711 193.203 45.8711C192.525 45.8711 191.947 46.378 191.947 47.1796C191.947 47.9812 192.525 48.5061 193.203 48.5061C193.709 48.5061 194.082 48.2329 194.336 47.8878L195.47 48.6283C194.953 49.4803 194.135 49.926 193.206 49.926C191.8 49.926 190.404 48.9842 190.404 47.1796V47.176Z" fill="#214586"/>
<path d="M196.17 42.625H197.738V43.991H196.17V42.625ZM196.17 44.5482H197.738V49.8181H196.17V44.5482Z" fill="#214586"/>
<path d="M198.434 47.1868C198.434 45.393 199.851 44.4512 201.225 44.4512C202.599 44.4512 204.016 45.393 204.016 47.1868C204.016 48.9806 202.599 49.9224 201.225 49.9224C199.851 49.9224 198.434 48.9806 198.434 47.1868ZM201.225 48.5025C201.903 48.5025 202.47 47.9956 202.47 47.1868C202.47 46.378 201.903 45.8711 201.225 45.8711C200.547 45.8711 199.98 46.378 199.98 47.1868C199.98 47.9956 200.547 48.5025 201.225 48.5025Z" fill="#214586"/>
<path d="M204.716 44.5518H206.284V45.2205C206.578 44.7747 207.091 44.4512 207.841 44.4512C208.903 44.4512 209.803 45.109 209.803 46.7195V49.8182H208.235V46.9927C208.235 46.3348 207.902 45.8495 207.256 45.8495C206.61 45.8495 206.284 46.3348 206.284 46.9927V49.8182H204.716V44.5482V44.5518Z" fill="#214586"/>
<path d="M210.499 47.1939C210.499 45.4109 211.823 44.4475 213.179 44.4475C214.535 44.4475 216.081 45.3786 215.747 47.7906H212.006C212.217 48.3586 212.745 48.6426 213.441 48.6426C213.907 48.6426 214.32 48.5312 214.703 48.2364L215.41 48.9769C214.976 49.5233 214.226 49.9188 213.265 49.9188C211.808 49.9188 210.495 48.9266 210.495 47.1939H210.499ZM214.37 46.6691C214.259 46.0616 213.724 45.7668 213.197 45.7668C212.669 45.7668 212.145 46.04 211.973 46.6691H214.37Z" fill="#214586"/>
<path d="M216.039 48.4198L217.284 48.0855C217.366 48.3407 217.546 48.693 218.041 48.693C218.324 48.693 218.586 48.5528 218.586 48.258C218.586 48.0855 218.486 47.9237 218.141 47.8123L217.434 47.5499C216.566 47.2371 216.189 46.6691 216.189 46.0113C216.189 45.0299 217.068 44.4512 218.102 44.4512C219.135 44.4512 219.809 45.0084 219.992 45.8603L218.769 46.1659C218.636 45.7597 218.374 45.6698 218.163 45.6698C217.858 45.6698 217.707 45.8531 217.707 46.0329C217.707 46.2054 217.807 46.3672 218.163 46.4786L218.819 46.7231C219.386 46.9172 220.132 47.309 220.132 48.2616C220.132 49.3257 219.232 49.9224 218.059 49.9224C216.997 49.9224 216.197 49.4263 216.035 48.4234L216.039 48.4198Z" fill="#214586"/>
<path d="M79.3222 18.6875L86.0957 36.6542H81.2918L80.4057 34.0983H73.4779L72.5917 36.6542H67.7627L74.5362 18.6875H79.315H79.3222ZM78.967 30.0218L76.9184 24.1516L74.895 30.0218H78.9634H78.967Z" fill="#214586"/>
<path d="M86.8812 41.1585V37.6932C87.5126 38.0994 88.8257 38.3007 89.8625 38.3007C92.3129 38.3007 93.4502 37.1108 93.4502 35.8455V35.4141H93.2995C93.1991 35.6406 92.0116 36.9059 89.7872 36.9059C86.831 36.9059 83.5195 34.6556 83.5195 30.0758C83.5195 25.4961 86.831 23.2422 89.7872 23.2422C92.0116 23.2422 93.1991 24.5075 93.2995 24.734H93.4502V23.4938H97.8236V35.4644C97.8236 40.8026 93.6009 41.917 90.6949 41.917C89.3567 41.917 87.7637 41.7409 86.8776 41.1585M90.6949 33.0343C92.2627 33.0343 93.5507 31.9451 93.5507 30.0723C93.5507 28.1994 92.2627 27.1102 90.6949 27.1102C89.1271 27.1102 87.814 28.2245 87.814 30.0723C87.814 31.92 89.1522 33.0343 90.6949 33.0343" fill="#214586"/>
<path d="M111.123 36.6542H106.75V35.112C105.993 36.1761 104.752 36.9094 103.008 36.9094C100.353 36.9094 98.1289 35.263 98.1289 31.2405L98.154 23.4973H102.527L102.502 30.482C102.502 31.848 103.159 33.0378 104.651 33.0378C106.144 33.0378 106.75 31.848 106.75 30.482L106.775 23.4973H111.149L111.123 36.6542V36.6542Z" fill="#214586"/>
<path d="M110.844 30.0758C110.844 25.4709 114.13 23.2422 117.061 23.2422C119.361 23.2422 120.599 24.5075 120.703 24.734H120.778V23.4938H125.151V36.6543H120.778V35.4141H120.703C120.602 35.6406 119.364 36.9059 117.061 36.9059C114.13 36.9059 110.844 34.6808 110.844 30.0758ZM117.998 33.0379C119.565 33.0379 120.878 31.9487 120.878 30.0758C120.878 28.203 119.565 27.1138 117.998 27.1138C116.43 27.1138 115.142 28.2281 115.142 30.0758C115.142 31.9236 116.48 33.0379 117.998 33.0379Z" fill="#214586"/>
<path d="M124.721 33.1133L128.158 32.1787C128.333 32.6352 128.638 33.5195 129.801 33.5195C130.407 33.5195 130.913 33.2427 130.913 32.6855C130.913 32.4087 130.762 32.0529 130.081 31.8516L128.158 31.1434C125.984 30.3849 125.047 28.9398 125.047 27.2467C125.047 24.7159 127.347 23.2493 130.002 23.2493C132.657 23.2493 134.45 24.7159 134.881 26.9195L131.469 27.7535C131.193 26.7398 130.558 26.5888 130.181 26.5888C129.499 26.5888 129.27 27.0453 129.27 27.3221C129.27 27.6241 129.446 27.98 130.206 28.1813L132 28.8391C133.263 29.2453 135.211 30.2303 135.211 32.6855C135.211 35.3421 132.936 36.9094 129.876 36.9094C127.171 36.9094 125.126 35.6944 124.721 33.1133" fill="#214586"/>
<path d="M134.278 30.0507C134.278 25.5968 137.791 23.2422 141.332 23.2422C143.657 23.2422 145.68 24.3062 147.018 26.4811L143.857 28.5553C143.276 27.8219 142.465 27.1641 141.332 27.1641C139.814 27.1641 138.576 28.3288 138.576 30.0471C138.576 31.7654 139.814 32.9804 141.332 32.9804C142.469 32.9804 143.276 32.3226 143.857 31.5892L147.018 33.6634C145.68 35.7879 143.657 36.9023 141.332 36.9023C137.794 36.9023 134.278 34.5477 134.278 30.0435" fill="#214586"/>
<path d="M145.676 30.0758C145.676 25.4709 148.962 23.2422 151.893 23.2422C154.193 23.2422 155.431 24.5075 155.535 24.734H155.61V23.4938H159.983V36.6543H155.61V35.4141H155.535C155.434 35.6406 154.197 36.9059 151.893 36.9059C148.962 36.9059 145.676 34.6808 145.676 30.0758ZM152.83 33.0379C154.397 33.0379 155.711 31.9487 155.711 30.0758C155.711 28.203 154.397 27.1138 152.83 27.1138C151.262 27.1138 149.974 28.2281 149.974 30.0758C149.974 31.9236 151.312 33.0379 152.83 33.0379Z" fill="#214586"/>
<path d="M164.687 18.6875H160.313V36.6542H164.687V18.6875Z" fill="#214586"/>
<path d="M169.387 23.4973H165.014V36.6542H169.387V23.4973Z" fill="#214586"/>
<path d="M169.086 30.101C169.086 25.6471 172.422 23.2422 175.834 23.2422C179.246 23.2422 183.189 25.5464 182.281 31.769H173.359C173.89 32.833 175.027 33.3615 176.545 33.3615C177.607 33.3615 178.568 33.1602 179.526 32.5023L181.449 34.5513C180.387 35.8922 178.543 36.9059 176.064 36.9059C172.372 36.9059 169.086 34.4255 169.086 30.0974M178.439 28.6811C178.134 27.4409 176.997 26.8837 175.885 26.8837C174.772 26.8837 173.66 27.4409 173.205 28.6811H178.435H178.439Z" fill="#214586"/>
<path d="M182.102 23.4974H186.475V25.0396C187.232 23.9755 188.473 23.2422 190.217 23.2422C192.872 23.2422 195.096 24.8886 195.096 28.9111V36.6543H190.723V29.6696C190.723 28.3036 190.066 27.1138 188.574 27.1138C187.081 27.1138 186.475 28.3036 186.475 29.6696V36.6543H182.102V23.4974V23.4974Z" fill="#214586"/>
<path d="M196.409 32.2505V26.9375H194.411V23.4973H196.409V20.1326H200.783V23.4973H203.563V26.9375H200.783V31.5927C200.783 32.2002 201.138 32.9587 202.376 32.9587C202.681 32.9587 203.158 32.9084 203.614 32.7574V36.0718C203.108 36.629 201.92 36.8051 200.934 36.8051C198.304 36.8051 196.409 35.5398 196.409 32.2505" fill="#214586"/>
<path d="M202.631 30.101C202.631 25.6471 205.967 23.2422 209.379 23.2422C212.791 23.2422 216.734 25.5464 215.826 31.769H206.904C207.435 32.833 208.572 33.3615 210.09 33.3615C211.152 33.3615 212.113 33.1602 213.071 32.5023L214.994 34.5513C213.932 35.8922 212.088 36.9059 209.609 36.9059C205.917 36.9059 202.631 34.4255 202.631 30.0974M211.984 28.6811C211.679 27.4409 210.542 26.8837 209.43 26.8837C208.317 26.8837 207.205 27.4409 206.75 28.6811H211.98H211.984Z" fill="#214586"/>
<path d="M214.51 33.1133L217.947 32.1787C218.123 32.6352 218.428 33.5195 219.59 33.5195C220.196 33.5195 220.702 33.2427 220.702 32.6855C220.702 32.4087 220.551 32.0529 219.87 31.8516L217.947 31.1434C215.773 30.3849 214.836 28.9398 214.836 27.2467C214.836 24.7159 217.136 23.2493 219.791 23.2493C222.446 23.2493 224.24 24.7159 224.67 26.9195L221.258 27.7535C220.982 26.7398 220.347 26.5888 219.97 26.5888C219.289 26.5888 219.059 27.0453 219.059 27.3221C219.059 27.6241 219.235 27.98 219.995 28.1813L221.789 28.8391C223.052 29.2453 225 30.2303 225 32.6855C225 35.3421 222.726 36.9094 219.665 36.9094C216.96 36.9094 214.915 35.6944 214.51 33.1133" fill="#214586"/>
<path d="M164.849 20.4562C164.849 18.9644 165.986 18.001 167.299 18.001C168.612 18.001 169.753 18.9608 169.753 20.4562C169.753 21.9516 168.591 22.9114 167.299 22.9114C166.007 22.9114 164.849 21.9516 164.849 20.4562Z" fill="#214586"/>
<path d="M41.2861 29.0118L42.3732 32.2183L51.2455 23.3356L56.6163 28.7098V24.4176L51.2455 19.0435L41.2861 29.0118Z" fill="#DF1683"/>
<path d="M56.616 57.335V50.7673L53.3369 54.053L56.616 57.335Z" fill="#FFCD00"/>
<path d="M1 57.335V50.7673L4.27913 54.053L1 57.335Z" fill="#DF1683"/>
<path d="M33.8988 47.1078L33.3284 45.3032L31.5273 47.1078H33.8988Z" fill="#C2D500"/>
<path d="M43.3916 35.2306L43.6499 35.9927L44.493 38.4192L51.3778 31.528L56.6158 36.7728V32.4842L51.3778 27.2358L43.3916 35.2306Z" fill="#C2D500"/>
<path d="M22.1136 56.5298H20.8221L20.266 58.3775L19.6561 60.4085L18.7376 63.4713H15.1822L9.65723 69L13.0835 68.9713H13.9696L26.4009 56.5298H22.1136Z" fill="#C2D500"/>
<path d="M46.4343 20.3663L44.2889 18.2202L39.3164 23.199L40.4035 26.4019L46.4343 20.3663Z" fill="#3CB4E5"/>
<path d="M30.4874 36.3308L29.4541 33.0703L27.6387 34.8893L25.748 41.0723L30.4874 36.3308Z" fill="#3CB4E5"/>
<path d="M52.0236 60.1137L56.6159 64.7114V60.4228L49.7383 53.5388L52.0236 60.1137Z" fill="#3CB4E5"/>
<path d="M45.3691 40.9429L46.4741 44.1279L51.2637 39.3324L56.0281 44.1027L49.6205 50.5194L51.7624 52.6654L56.6165 47.8053V40.4001L51.2637 35.0403L45.3691 40.9429Z" fill="#004987"/>
<path d="M30.1107 56.5298L17.6543 69L20.2984 68.9713H21.9667L34.3944 56.5298H30.1107Z" fill="#004987"/>
<path d="M51.8371 63.2735H51.7905L47.5283 63.2483L47.5534 63.2735H45.1604L39.4668 68.9712H41.0848H43.7541L48.5006 64.2225L53.2471 68.9712H56.6159V68.0545L51.8371 63.2735Z" fill="#DF1683"/>
<path d="M37.9241 60.1137L36.9124 56.8892L24.8184 68.9999L28.5352 68.9712H29.1307L37.4326 60.6601L37.9241 60.1137Z" fill="#FFCD00"/>
<path d="M38.915 63.2734L38.5993 62.2561L31.8652 68.9963L34.6564 68.9711H36.1776L41.8713 63.2734H38.915Z" fill="#3CB4E5"/>
<path d="M25.7875 14L20.0293 19.518H22.5335H24.5821L30.082 14.0144L25.7875 14Z" fill="#C2D500"/>
<path d="M34.9213 14H32.9625L27.459 19.518H30.8565H31.7463L37.2354 14H34.9213Z" fill="#004987"/>
<path d="M41.4973 14L40.0156 14.0036L34.5049 19.518H38.071L38.2576 20.0536L44.2813 14H41.4973Z" fill="#DF1683"/>
<path d="M56.6159 21.1571V19.4316L55.7549 20.2944L56.6159 21.1571Z" fill="#004987"/>
<path d="M48.2747 18.3713L51.2847 15.3588L54.3988 18.4791L56.5442 16.333L54.2266 14.0144H48.3428L46.1328 16.2252L48.2747 18.3713Z" fill="#3CB4E5"/>
<path d="M53.1687 43.9947L51.0233 41.8486L47.0625 45.8173L48.1675 49.0022L53.1687 43.9947Z" fill="#FFCD00"/>
<path d="M16.4239 29.0118L15.3404 32.2183L6.4645 23.3356L1.09375 28.7098V24.4176L6.4645 19.0435L16.4239 29.0118Z" fill="#004987"/>
<path d="M14.3179 35.2306L14.0596 35.9927L13.2201 38.4192L6.33534 31.528L1.09375 36.7728V32.4842L6.33534 27.2358L14.3179 35.2306Z" fill="#3CB4E5"/>
<path d="M21.8584 14H17.65L13.4381 18.2382L13.4202 18.2203L11.2783 20.3663L17.3092 26.402L18.3927 23.199L15.6122 20.4131L21.8584 14Z" fill="#3CB4E5"/>
<path d="M5.68956 60.1137L1.09375 64.7114V60.4228L7.97132 53.5388L5.68956 60.1137Z" fill="#3CB4E5"/>
<path d="M12.3447 40.9429L11.2361 44.1279L6.44656 39.3324L1.68213 44.1027L8.0933 50.5194L5.94787 52.6654L1.09375 47.8053V40.4001L6.44656 35.0403L12.3447 40.9429Z" fill="#C2D500"/>
<path d="M6.95242 63.2735H6.99906L11.2612 63.2483L5.54605 68.9712H2.17364H1.09375L6.95242 63.2735Z" fill="#DF1683"/>
<path d="M1.09375 21.1571V19.4316L1.95838 20.2944L1.09375 21.1571Z" fill="#3CB4E5"/>
<path d="M9.43495 18.3713L6.42489 15.3588L3.31079 18.4791L1.16895 16.333L3.483 14.0144H9.37037L11.5768 16.2252L9.43495 18.3713Z" fill="#FFCD00"/>
<path d="M4.54492 43.9947L6.68676 41.8486L10.6511 45.8173L9.54614 49.0022L4.54492 43.9947Z" fill="#004987"/>
<path d="M31.7854 40.4323L31.3262 38.9836L26.3752 43.9408L25.0729 45.2457L24.1796 46.2055L23.9033 47.1078H27.3762H27.4982L32.3595 42.2441L31.7854 40.4323Z" fill="#DF1683"/>
<path d="M51.791 63.2735H51.8377L51.8161 63.2483L51.791 63.2735Z" fill="#1E1E1C"/>
<path d="M46.8896 69.0001H50.4558L48.5866 67.0122L46.8896 69.0001Z" fill="#C2D500"/>
<path d="M99.3164 63.7194C99.3164 63.5037 99.3487 63.3491 99.5317 63.0256C102.309 57.9965 103.675 54.736 103.722 53.6289C103.722 53.5066 103.783 53.4132 104.092 53.3664C104.827 53.2262 107.776 53.1831 108.436 53.1831C108.895 53.1831 109.251 53.8445 109.251 54.4125C109.251 54.7217 109.143 55.0128 108.899 55.1494C108.469 55.1494 107.672 55.1027 107.303 55.1027C106.675 55.1027 106.198 55.1494 106.029 55.3939C105.72 55.8253 104.188 58.1762 104.188 58.3775C104.188 58.5465 104.31 58.622 104.465 58.622C104.773 58.622 105.541 58.622 105.645 58.6364C105.907 58.6687 106.151 59.1432 106.151 59.5602C106.151 59.8838 105.997 60.1893 105.598 60.236C103.988 60.4194 102.911 60.7609 102.911 60.7609C102.696 60.9766 101.867 62.436 101.867 62.774C101.867 62.9106 101.989 62.9573 102.251 62.9573C102.85 62.9573 103.449 62.8207 104.171 62.8207C104.816 62.8207 105.398 63.3599 105.398 64.2047C105.398 64.4347 105.322 64.5893 105.136 64.5893C104.153 64.5893 102.387 64.9128 101.498 65.2975C101.358 65.3586 101.254 65.3586 100.974 65.3586C100.389 65.3586 99.3164 64.1436 99.3164 63.7122V63.7194Z" fill="#21B4E9"/>
<path d="M106.082 63.2735C106.082 61.5048 109.828 55.4153 110.38 53.9702C110.517 53.6179 110.858 53.5388 111.116 53.5388C111.575 53.5388 112.329 54.1068 112.329 54.6316C112.329 54.7718 112.282 54.9084 112.221 55.0019C110.732 57.263 108.475 60.8757 107.525 63.198C107.492 63.2914 107.464 63.4137 107.464 63.5215C107.464 63.6581 107.51 63.7659 107.6 63.7659C107.632 63.7659 107.661 63.7516 107.708 63.7192C107.876 63.597 108.597 62.9967 109.318 62.0728C109.763 61.5659 111.267 59.7039 111.543 59.3192C111.589 59.2581 111.618 59.2257 111.665 59.2257C111.805 59.2257 111.894 59.5169 111.894 59.5169C111.478 60.1784 110.56 61.4689 109.699 62.6552C109.207 63.331 108.35 64.4382 107.765 64.9306C107.629 65.0529 107.456 65.114 107.32 65.114C106.66 65.114 106.075 63.9744 106.075 63.2699L106.082 63.2735Z" fill="#21B4E9"/>
<path d="M110.259 67.58C110.259 66.8719 110.826 66.1493 111.579 66.1493C111.593 66.1493 111.611 66.1637 111.611 66.1817C111.536 66.365 111.504 66.5663 111.504 66.7676C111.504 67.35 111.78 67.8748 112.164 67.8748C112.408 67.8748 112.702 67.6591 112.978 67.0768C113.437 66.1241 113.868 65.1536 114.252 64.2477C113.76 64.6647 113.301 64.8156 112.917 64.8156C112.35 64.8156 111.981 64.4777 111.981 64.1075C111.981 61.9866 114.42 57.3853 115.619 57.3853C116.171 57.3853 116.939 57.9101 116.939 58.5068C116.939 58.6614 116.878 58.8447 116.756 58.9993C117.323 59.046 117.954 59.4451 117.954 60.013C117.954 60.182 117.908 60.3509 117.786 60.5343C116.681 62.2274 115.698 64.165 114.438 66.9186C113.979 67.9503 113.072 68.9496 112.135 68.9496C110.786 68.9496 110.262 68.2738 110.262 67.58H110.259ZM114.679 63.2268C115.17 62.0117 115.569 60.9656 115.83 60.3366C115.863 60.2 115.877 60.0921 115.877 60.013C115.877 59.8764 115.83 59.8297 115.769 59.8297C115.142 59.8297 113.222 62.63 113.222 63.6438C113.222 63.7049 113.33 63.7983 113.545 63.7983C113.789 63.7983 114.159 63.6761 114.682 63.2303L114.679 63.2268Z" fill="#21B4E9"/>
<path d="M117.643 63.198C117.643 62.213 118.748 60.0598 119.3 58.6147C119.44 58.2624 119.777 58.1833 120.036 58.1833C120.495 58.1833 121.187 58.6902 121.187 59.215C121.187 59.3516 121.141 59.4918 121.08 59.5853C119.96 61.2784 118.945 63.216 118.945 63.5215C118.945 63.6581 118.992 63.766 119.081 63.766C119.114 63.766 119.142 63.7516 119.189 63.7193C119.358 63.597 120.079 62.9967 120.8 62.0728C121.245 61.566 122.748 59.7039 123.024 59.3193C123.071 59.2581 123.099 59.2258 123.146 59.2258C123.286 59.2258 123.376 59.517 123.376 59.517C122.963 60.1784 122.041 61.4689 121.18 62.6552C120.689 63.331 119.831 64.4382 119.246 64.9307C119.11 65.0529 118.97 65.0996 118.83 65.0996C118.184 65.0996 117.632 63.899 117.632 63.1908L117.643 63.198ZM120.269 56.7706C120.269 56.2313 120.897 55.3398 121.496 55.3398C122.185 55.3398 122.708 56.03 122.708 56.4327C122.708 56.8353 122.156 57.7555 121.74 57.7555C121.22 57.7555 120.265 57.2487 120.265 56.7706H120.269Z" fill="#21B4E9"/>
<path d="M118.944 67.58C118.944 66.8719 119.511 66.1493 120.265 66.1493C120.279 66.1493 120.297 66.1637 120.297 66.1817C120.222 66.365 120.189 66.5663 120.189 66.7676C120.189 67.35 120.466 67.8748 120.849 67.8748C121.093 67.8748 121.388 67.6591 121.664 67.0768C122.123 66.1241 122.554 65.1536 122.937 64.2477C122.446 64.6647 121.987 64.8156 121.603 64.8156C121.036 64.8156 120.666 64.4777 120.666 64.1075C120.666 61.9866 123.106 57.3853 124.304 57.3853C124.857 57.3853 125.625 57.9101 125.625 58.5068C125.625 58.6614 125.564 58.8447 125.442 58.9993C126.008 59.046 126.64 59.4451 126.64 60.013C126.64 60.182 126.593 60.3509 126.471 60.5343C125.366 62.2274 124.383 64.165 123.124 66.9186C122.665 67.9503 121.757 68.9496 120.821 68.9496C119.472 68.9496 118.948 68.2738 118.948 67.58H118.944ZM123.364 63.2268C123.856 62.0117 124.254 60.9656 124.516 60.3366C124.548 60.2 124.563 60.0921 124.563 60.013C124.563 59.8764 124.516 59.8297 124.455 59.8297C123.827 59.8297 121.908 62.63 121.908 63.6438C121.908 63.7049 122.015 63.7983 122.231 63.7983C122.475 63.7983 122.844 63.6761 123.368 63.2303L123.364 63.2268Z" fill="#21B4E9"/>
<path d="M125.926 64.104C125.926 61.9831 128.581 57.4429 129.78 57.4429C129.855 57.4429 129.934 57.4572 130.041 57.504C130.379 57.6442 130.931 58.0576 130.931 58.5177C130.931 58.6723 130.856 58.8412 130.702 58.9958C131.268 59.0425 131.914 59.4559 131.914 60.0095C131.914 60.1785 131.868 60.3474 131.731 60.5308C131.254 61.1599 130.551 62.2994 130.35 62.8674C130.228 63.2053 130.181 63.421 130.181 63.5756C130.181 63.7589 130.257 63.838 130.35 63.838C130.458 63.838 130.594 63.7445 130.72 63.6223C130.874 63.4821 131.455 62.7775 132.069 62.0693C132.513 61.5625 134.017 59.7004 134.293 59.3157C134.34 59.2546 134.368 59.2223 134.415 59.2223C134.551 59.2223 134.644 59.5135 134.644 59.5135C134.228 60.1749 133.324 61.4654 132.449 62.6517C131.573 63.8523 130.637 65.1429 130.07 65.1429C129.611 65.1429 129.148 64.7726 129.102 63.7589C128.502 64.3448 127.749 65.204 127.29 65.204C126.705 65.204 125.923 64.7259 125.923 64.0968L125.926 64.104ZM127.448 64.0573C128.136 63.4893 129.442 61.2282 129.643 60.6746C129.676 60.6135 129.676 60.5523 129.676 60.5056C129.676 60.3367 129.554 60.1965 129.414 60.1965C128.908 60.1965 127.049 63.1334 127.049 63.9494C127.049 64.086 127.11 64.1507 127.204 64.1507C127.279 64.1507 127.358 64.122 127.448 64.0573Z" fill="#21B4E9"/>
<path d="M131.792 64.0716C131.792 62.9644 134.203 57.5974 135.398 57.5974C135.782 57.5974 136.456 58.0432 136.456 58.5213C136.456 58.6902 136.381 58.8736 136.148 59.0605C135.75 59.3984 134.261 61.3216 134.261 61.584C134.261 61.6128 134.275 61.6307 134.293 61.6307C134.616 61.6307 136.765 58.8628 137.411 58.6004C137.977 58.6471 138.623 59.0605 138.623 59.6141C138.623 59.783 138.577 59.952 138.44 60.1353C137.963 60.7644 137.26 61.9039 137.059 62.4719C136.937 62.8098 136.89 63.0255 136.89 63.1801C136.89 63.3634 136.966 63.4425 137.059 63.4425C137.411 63.4425 138.164 62.4899 138.516 62.0729C138.96 61.566 140.464 59.7039 140.74 59.3193C140.787 59.2582 140.815 59.2258 140.862 59.2258C140.998 59.2258 141.092 59.517 141.092 59.517C140.675 60.1785 139.771 61.469 138.896 62.6553C138.236 63.5611 137.084 64.7762 136.331 64.7762C135.886 64.7762 135.577 64.3448 135.577 63.1909C135.577 62.2059 135.868 61.8069 135.868 61.8069C135.667 61.8069 135.1 62.2526 134.702 62.7451C134.135 63.4389 133.644 64.3915 133.414 65.053C133.339 65.2687 133.213 65.3621 133.044 65.3621C132.693 65.3621 131.785 64.7618 131.785 64.0716H131.792Z" fill="#21B4E9"/>
<path d="M138.619 63.6115C138.619 62.7056 139.542 60.7968 140.507 58.9671C139.556 58.6435 139.43 58.1367 139.43 57.6442C139.43 57.4752 139.524 57.4141 139.646 57.4141C139.922 57.4141 140.596 57.5076 141.289 57.522C141.917 56.3824 142.44 55.4011 142.641 54.8906C142.778 54.5383 143.118 54.4592 143.377 54.4592C143.836 54.4592 144.589 55.0272 144.589 55.552C144.589 55.6886 144.543 55.8288 144.482 55.9223C144.112 56.4903 143.7 57.0762 143.283 57.6765C143.621 57.921 144.098 58.169 144.098 58.4602C144.098 58.6292 144.005 58.6759 143.883 58.6903L142.455 58.8592C141.457 60.3187 140.489 61.8285 139.936 63.1981C139.875 63.3671 139.861 63.5216 139.861 63.6295C139.861 63.7841 139.907 63.8739 140.029 63.8739C140.123 63.8739 140.273 63.8128 140.474 63.6906C140.718 63.536 141.518 62.9357 142.193 62.0765C142.638 61.5697 144.141 59.7076 144.417 59.323C144.464 59.2618 144.492 59.2295 144.539 59.2295C144.679 59.2295 144.769 59.5207 144.769 59.5207C144.353 60.1821 143.434 61.4726 142.573 62.6589C142.082 63.3347 141.084 64.4599 140.485 64.9344C140.363 65.0279 140.241 65.071 140.087 65.071C139.441 65.071 138.612 64.3017 138.612 63.6115H138.619Z" fill="#21B4E9"/>
<path d="M142.29 63.288C142.29 60.9802 144.471 57.5508 146.143 57.5508C146.667 57.5508 146.757 58.3668 147.219 58.6723C147.528 58.8737 148.109 58.9491 148.109 59.7328C148.109 60.4697 145.024 62.5152 143.704 63.209C143.671 63.4246 143.657 63.6403 143.657 63.838C143.657 64.1759 143.811 64.3773 144.148 64.3773C145.207 64.3773 146.419 63.2557 147.449 62.0694C147.894 61.5625 149.397 59.7005 149.673 59.3158C149.72 59.2547 149.749 59.2224 149.795 59.2224C149.935 59.2224 150.025 59.5135 150.025 59.5135C149.609 60.175 148.705 61.4511 147.829 62.6518C146.771 64.0969 145.297 65.3263 144.331 65.3263C143.747 65.3263 142.29 64.4491 142.29 63.2808V63.288ZM146.71 59.5027C146.663 59.4884 146.602 59.4704 146.556 59.4704C145.479 59.7328 144.453 60.9766 143.962 62.3174C145.835 61.0413 146.419 60.0887 146.71 59.5027V59.5027Z" fill="#21B4E9"/>
<path d="M150.1 64.1039C150.1 61.6882 152.633 58.3199 153.57 57.5686C153.738 57.4751 153.846 57.4463 153.953 57.4463C154.398 57.4463 154.843 57.8777 155.091 58.2444C155.783 56.7849 156.379 55.3973 156.963 53.9702C157.1 53.6179 157.441 53.5388 157.699 53.5388C158.158 53.5388 158.912 54.1068 158.912 54.6316C158.912 54.7718 158.865 54.9084 158.804 55.0019C157.146 57.2163 154.352 62.6156 154.352 63.5826C154.352 63.7659 154.427 63.845 154.52 63.845C154.628 63.845 154.764 63.7516 154.89 63.6293C155.044 63.4891 155.625 62.7846 156.242 62.0764C156.687 61.5695 158.19 59.7074 158.467 59.3228C158.513 59.2617 158.542 59.2293 158.589 59.2293C158.729 59.2293 158.818 59.5205 158.818 59.5205C158.402 60.182 157.498 61.4725 156.623 62.6588C155.747 63.8594 154.811 65.1499 154.244 65.1499C153.785 65.1499 153.322 64.7797 153.275 63.7659C152.676 64.3519 151.926 65.211 151.464 65.211C150.879 65.211 150.097 64.7329 150.097 64.1039H150.1ZM151.621 64.0571C152.145 63.6257 153.218 61.9506 153.785 60.9369L154.136 60.2143C154.151 60.1676 154.165 60.1208 154.165 60.0777C154.165 59.9088 154.043 59.7542 153.903 59.7542C153.397 59.7542 151.216 63.1369 151.216 63.9529C151.216 64.0895 151.277 64.1542 151.37 64.1542C151.446 64.1542 151.525 64.1254 151.614 64.0607L151.621 64.0571Z" fill="#21B4E9"/>
<path d="M156.364 63.288C156.364 60.9802 158.546 57.5508 160.217 57.5508C160.741 57.5508 160.831 58.3668 161.294 58.6723C161.602 58.8737 162.183 58.9491 162.183 59.7328C162.183 60.4697 159.098 62.5152 157.778 63.209C157.746 63.4246 157.731 63.6403 157.731 63.838C157.731 64.1759 157.885 64.3773 158.223 64.3773C159.281 64.3773 160.494 63.2557 161.523 62.0694C161.968 61.5625 163.471 59.7005 163.748 59.3158C163.794 59.2547 163.823 59.2224 163.87 59.2224C164.01 59.2224 164.099 59.5135 164.099 59.5135C163.683 60.175 162.779 61.4511 161.904 62.6518C160.845 64.0969 159.371 65.3263 158.406 65.3263C157.821 65.3263 156.364 64.4491 156.364 63.2808V63.288ZM160.784 59.5027C160.738 59.4884 160.677 59.4704 160.63 59.4704C159.554 59.7328 158.528 60.9766 158.036 62.3174C159.909 61.0413 160.494 60.0887 160.784 59.5027V59.5027Z" fill="#21B4E9"/>
<path d="M163.837 64.3807C166.094 59.8262 168.964 54.3837 169.132 53.7222C169.24 53.3088 169.717 53.183 170.054 53.183C170.775 53.183 171.834 53.6899 171.834 54.4592C171.834 54.5814 171.805 54.7216 171.741 54.8582L170.374 59.4559C171.357 58.2876 174.564 53.3664 174.747 53.0716C174.855 52.8883 174.977 52.8271 175.131 52.8271C176.189 52.8271 177.036 53.8588 177.036 54.3046C177.036 54.5203 177.004 54.4879 176.745 55.0128C174.212 59.934 173.477 61.7817 172.63 64.9343C172.63 65.3334 172.232 65.3513 172.232 65.3513C171.819 65.3513 170.851 64.582 170.851 64.1507C170.865 63.9062 172.218 60.3222 173.323 57.2775C171.941 59.4775 169.914 63.1226 169.624 63.5683C169.548 63.6905 169.441 63.7373 169.333 63.7373C168.809 63.7373 168.06 62.6445 168.06 62.2311L169.258 58.2157C167.615 60.8147 166.051 63.8775 165.527 65.1213C165.419 65.3657 165.297 65.4124 165.175 65.4124C164.806 65.4124 163.841 64.8265 163.841 64.3807H163.837Z" fill="#21B4E9"/>
<path d="M174.044 63.2879C174.044 60.9801 176.225 57.5507 177.897 57.5507C178.421 57.5507 178.511 58.3667 178.973 58.6723C179.282 58.8736 179.863 58.9491 179.863 59.7327C179.863 60.4696 176.778 62.5151 175.457 63.2089C175.425 63.4245 175.411 63.6402 175.411 63.8379C175.411 64.1759 175.565 64.3772 175.902 64.3772C176.961 64.3772 178.173 63.2556 179.203 62.0693C179.648 61.5625 181.151 59.7004 181.427 59.3157C181.474 59.2546 181.503 59.2223 181.549 59.2223C181.689 59.2223 181.779 59.5134 181.779 59.5134C181.363 60.1749 180.459 61.451 179.583 62.6517C178.525 64.0968 177.05 65.3262 176.085 65.3262C175.501 65.3262 174.044 64.4491 174.044 63.2808V63.2879ZM178.464 59.5027C178.417 59.4883 178.356 59.4703 178.31 59.4703C177.233 59.7327 176.207 60.9765 175.716 62.3174C177.589 61.0412 178.173 60.0886 178.464 59.5027V59.5027ZM178.6 57.0259C178.6 56.9791 178.661 56.918 178.816 56.8569C179.996 56.3788 179.906 54.887 180.505 54.887C181.165 54.887 181.535 55.2716 181.535 55.7317C181.535 56.3788 180.8 57.1625 179.185 57.1625C178.848 57.1625 178.6 57.1157 178.6 57.0259Z" fill="#21B4E9"/>
<path d="M178.525 66.135C178.618 64.5677 179.569 62.9213 180.688 61.4151C180.487 60.3366 180.398 59.3373 180.398 58.9095C180.398 58.2804 181.104 57.849 181.642 57.849C181.98 57.849 182.27 58.018 182.27 58.417C182.27 58.6471 182.256 59.0173 182.256 59.4631C182.823 58.7873 183.347 58.1546 183.777 57.601C183.838 57.5255 183.899 57.4932 183.96 57.4932C184.606 57.4932 184.99 58.3703 184.99 58.9239C184.99 59.2474 184.789 59.3696 184.62 59.4631C184.175 59.7399 183.253 60.5559 182.303 61.602C182.364 62.7415 182.532 63.7265 182.93 63.7265C183.099 63.6043 183.82 63.0039 184.541 62.0801C184.986 61.5732 186.489 59.7111 186.766 59.3265C186.812 59.2654 186.841 59.233 186.888 59.233C187.024 59.233 187.117 59.5242 187.117 59.5242C186.701 60.1856 185.783 61.4762 184.922 62.6624C184.43 63.3383 183.569 64.4455 182.988 64.9379C182.866 65.0458 182.744 65.0745 182.618 65.0745C181.926 65.0745 181.42 64.1507 181.068 63.0147C180.146 64.1974 179.379 65.4592 179.196 66.4765C179.181 66.5843 179.088 66.6455 178.995 66.6455C178.794 66.6455 178.518 66.4298 178.518 66.1386L178.525 66.135Z" fill="#21B4E9"/>
<path d="M184.757 63.198C184.757 62.213 185.862 60.0598 186.414 58.6147C186.554 58.2624 186.892 58.1833 187.15 58.1833C187.609 58.1833 188.301 58.6902 188.301 59.215C188.301 59.3516 188.255 59.4918 188.194 59.5853C187.075 61.2784 186.059 63.216 186.059 63.5215C186.059 63.6581 186.106 63.766 186.196 63.766C186.228 63.766 186.257 63.7516 186.303 63.7193C186.472 63.597 187.193 62.9967 187.914 62.0728C188.359 61.566 189.862 59.7039 190.138 59.3193C190.185 59.2581 190.214 59.2258 190.26 59.2258C190.4 59.2258 190.49 59.517 190.49 59.517C190.077 60.1784 189.155 61.4689 188.294 62.6552C187.803 63.331 186.945 64.4382 186.361 64.9307C186.224 65.0529 186.084 65.0996 185.944 65.0996C185.299 65.0996 184.746 63.899 184.746 63.1908L184.757 63.198ZM187.383 56.7706C187.383 56.2313 188.011 55.3398 188.61 55.3398C189.299 55.3398 189.823 56.03 189.823 56.4327C189.823 56.8353 189.27 57.7555 188.854 57.7555C188.334 57.7555 187.379 57.2487 187.379 56.7706H187.383Z" fill="#21B4E9"/>
<path d="M187.947 63.3023C187.947 61.5193 190.049 58.5788 191.445 57.5183C191.599 57.3961 191.768 57.3494 191.936 57.3494C192.69 57.3494 193.317 57.7951 193.317 58.55C193.317 58.949 193.701 59.118 193.701 59.3804C193.701 59.4559 193.669 59.535 193.594 59.6249C193.303 59.9628 192.306 61.3935 192.072 62.2383C192.04 62.3317 191.965 62.3749 191.872 62.3749C191.549 62.3749 190.967 61.85 190.967 61.5588C190.967 61.4366 191.136 61.1598 191.136 61.0807C191.136 60.9873 191.089 60.9405 191.014 60.9405C190.494 60.9405 189.371 63.3095 189.371 63.9709C189.371 64.2621 189.601 64.37 189.891 64.37C190.95 64.37 192.162 63.2484 193.192 62.0621C193.637 61.5552 195.14 59.6932 195.416 59.3085C195.463 59.2474 195.492 59.2151 195.538 59.2151C195.678 59.2151 195.768 59.5062 195.768 59.5062C195.352 60.1677 194.447 61.4438 193.572 62.6445C192.514 64.0896 191.24 65.4592 189.934 65.4592C189.227 65.4592 187.939 64.5677 187.939 63.2915L187.947 63.3023Z" fill="#21B4E9"/>
<path d="M192.951 63.6726C192.951 61.3971 195.268 57.4429 196.434 57.4429C196.786 57.4429 197.016 57.921 197.417 58.1654C198.2 58.1654 198.752 58.8125 198.752 59.3193C198.752 59.5961 198.307 60.5667 197.676 61.6272H197.708C198.139 61.6272 198.659 61.3971 199.15 60.8291C199.61 60.2899 200.27 59.5818 200.456 59.3229C200.503 59.2618 200.532 59.2295 200.578 59.2295C200.715 59.2295 200.808 59.5206 200.808 59.5206C200.532 59.9664 200.072 60.6602 199.628 61.2893C199 62.1808 198.153 62.5798 197.446 62.5798C197.324 62.5798 197.217 62.5798 197.109 62.551C196.187 63.935 195.082 65.2256 194.314 65.2256C193.331 65.2256 192.947 64.5965 192.947 63.6726H192.951ZM196.191 61.8573C196.115 61.6883 196.069 61.487 196.069 61.2713C196.069 60.9478 196.144 60.5811 196.359 60.1497H196.313C195.652 60.1497 194.024 62.4108 194.024 64.1795C194.024 64.3161 194.085 64.3808 194.178 64.3808C194.594 64.3808 195.606 63.0256 196.191 61.8573V61.8573Z" fill="#21B4E9"/>
</g>
<defs>
<clipPath id="clip0_175_1069">
<rect width="224" height="55" fill="white" transform="translate(1 14)"/>
</clipPath>
</defs>
</svg>
